HIERARCHY
ROOT Hips
{
  OFFSET 0.849866 78.6569 -0.536788
  CHANNELS 6 Xposition Yposition Zposition Zrotation Xrotation Yrotation
  JOINT Bip01_Pelvis
  {
    OFFSET 0 0 0
    CHANNELS 6 Xposition Yposition Zposition Zrotation Xrotation Yrotation
    JOINT BN_Tail_01
    {
      OFFSET -5.52397 -0.332285 0
      CHANNELS 6 Xposition Yposition Zposition Zrotation Xrotation Yrotation
      JOINT BN_Tail_02
      {
        OFFSET 6.48885 -2.032e-005 0
        CHANNELS 6 Xposition Yposition Zposition Zrotation Xrotation Yrotation
        JOINT BN_Tail_03
        {
          OFFSET 7.08759 1.016e-005 -0.00261112
          CHANNELS 6 Xposition Yposition Zposition Zrotation Xrotation Yrotation
          End Site
          {
            OFFSET 0 0 0
          }
        }
      }
    }
    JOINT Bip01_Spine
    {
      OFFSET 4.02227 0.398968 0
      CHANNELS 6 Xposition Yposition Zposition Zrotation Xrotation Yrotation
      JOINT BN_UpperArm_R_01
      {
        OFFSET 4.84413 -3.22857 -3.65581
        CHANNELS 6 Xposition Yposition Zposition Zrotation Xrotation Yrotation
        JOINT BN_Forearm_R_01
        {
          OFFSET 8.51614 0 0
          CHANNELS 6 Xposition Yposition Zposition Zrotation Xrotation Yrotation
          JOINT BN_hand_R_01
          {
            OFFSET 10.1924 0 0
            CHANNELS 6 Xposition Yposition Zposition Zrotation Xrotation Yrotation
            JOINT BN_Finger_R_02
            {
              OFFSET 14.5949 -1.43855 0.585079
              CHANNELS 6 Xposition Yposition Zposition Zrotation Xrotation Yrotation
              End Site
              {
                OFFSET 0 0 0
              }
            }
            JOINT BN_Finger_R_01
            {
              OFFSET 14.4623 0 0
              CHANNELS 6 Xposition Yposition Zposition Zrotation Xrotation Yrotation
              End Site
              {
                OFFSET 0 0 0
              }
            }
          }
        }
      }
      JOINT BN_UpperArm_L_01
      {
        OFFSET 4.84412 -3.22858 3.65557
        CHANNELS 6 Xposition Yposition Zposition Zrotation Xrotation Yrotation
        JOINT BN_Forearm_L_01
        {
          OFFSET 8.51611 0 0
          CHANNELS 6 Xposition Yposition Zposition Zrotation Xrotation Yrotation
          JOINT BN_hand_L_01
          {
            OFFSET 10.1924 0 0
            CHANNELS 6 Xposition Yposition Zposition Zrotation Xrotation Yrotation
            JOINT BN_Finger_L_01
            {
              OFFSET 14.4623 0 0
              CHANNELS 6 Xposition Yposition Zposition Zrotation Xrotation Yrotation
              End Site
              {
                OFFSET 0 0 0
              }
            }
            JOINT BN_Finger_L_02
            {
              OFFSET 14.5949 1.43855 0.585071
              CHANNELS 6 Xposition Yposition Zposition Zrotation Xrotation Yrotation
              End Site
              {
                OFFSET 0 0 0
              }
            }
          }
        }
      }
      JOINT Bip01_R_Thigh
      {
        OFFSET -4.03411 -0.254132 -3.45377
        CHANNELS 6 Xposition Yposition Zposition Zrotation Xrotation Yrotation
        JOINT Bip01_R_Calf
        {
          OFFSET 3.92618 0 0
          CHANNELS 6 Xposition Yposition Zposition Zrotation Xrotation Yrotation
          JOINT Bip01_R_HorseLink
          {
            OFFSET 6.12319 0 0
            CHANNELS 6 Xposition Yposition Zposition Zrotation Xrotation Yrotation
            JOINT Bip01_R_Foot
            {
              OFFSET 9.94776 0 0
              CHANNELS 6 Xposition Yposition Zposition Zrotation Xrotation Yrotation
              JOINT Bip01_R_Toe3
              {
                OFFSET 0.881252 -0.110953 0.0158496
                CHANNELS 6 Xposition Yposition Zposition Zrotation Xrotation Yrotation
                JOINT Bip01_R_Toe31
                {
                  OFFSET 2.32137 0 0
                  CHANNELS 6 Xposition Yposition Zposition Zrotation Xrotation Yrotation
                  JOINT Bip01_R_Toe32
                  {
                    OFFSET 1.63293 0 0
                    CHANNELS 6 Xposition Yposition Zposition Zrotation Xrotation Yrotation
                    JOINT Bip01_R_Toe3Nub
                    {
                      OFFSET 1.72131 0 0
                      CHANNELS 6 Xposition Yposition Zposition Zrotation Xrotation Yrotation
                      End Site
                      {
                        OFFSET 0 0 0
                      }
                    }
                  }
                }
              }
              JOINT Bip01_R_Toe2
              {
                OFFSET 0.994751 0.967285 -1.09428
                CHANNELS 6 Xposition Yposition Zposition Zrotation Xrotation Yrotation
                JOINT Bip01_R_Toe21
                {
                  OFFSET 2.20201 0 0
                  CHANNELS 6 Xposition Yposition Zposition Zrotation Xrotation Yrotation
                  JOINT Bip01_R_Toe22
                  {
                    OFFSET 1.84925 0 0
                    CHANNELS 6 Xposition Yposition Zposition Zrotation Xrotation Yrotation
                    JOINT Bip01_R_Toe2Nub
                    {
                      OFFSET 1.70976 0 0
                      CHANNELS 6 Xposition Yposition Zposition Zrotation Xrotation Yrotation
                      End Site
                      {
                        OFFSET 0 0 0
                      }
                    }
                  }
                }
              }
              JOINT Bip01_R_Toe1
              {
                OFFSET 1.3748 1.34027 -0.0712419
                CHANNELS 6 Xposition Yposition Zposition Zrotation Xrotation Yrotation
                JOINT Bip01_R_Toe11
                {
                  OFFSET 2.26122 0 0
                  CHANNELS 6 Xposition Yposition Zposition Zrotation Xrotation Yrotation
                  JOINT Bip01_R_Toe12
                  {
                    OFFSET 2.22215 0 0
                    CHANNELS 6 Xposition Yposition Zposition Zrotation Xrotation Yrotation
                    JOINT Bip01_R_Toe1Nub
                    {
                      OFFSET 1.61867 0 0
                      CHANNELS 6 Xposition Yposition Zposition Zrotation Xrotation Yrotation
                      End Site
                      {
                        OFFSET 0 0 0
                      }
                    }
                  }
                }
              }
              JOINT Bip01_R_Toe0
              {
                OFFSET 1.40695 0.687986 0.883783
                CHANNELS 6 Xposition Yposition Zposition Zrotation Xrotation Yrotation
                JOINT Bip01_R_Toe01
                {
                  OFFSET 2.26828 0 0
                  CHANNELS 6 Xposition Yposition Zposition Zrotation Xrotation Yrotation
                  JOINT Bip01_R_Toe02
                  {
                    OFFSET 2.09769 0 0
                    CHANNELS 6 Xposition Yposition Zposition Zrotation Xrotation Yrotation
                    JOINT Bip01_R_Toe0Nub
                    {
                      OFFSET 1.53753 0 0
                      CHANNELS 6 Xposition Yposition Zposition Zrotation Xrotation Yrotation
                      End Site
                      {
                        OFFSET 0 0 0
                      }
                    }
                  }
                }
              }
            }
          }
        }
      }
      JOINT Bip01_L_Thigh
      {
        OFFSET -4.03411 -0.254147 3.45377
        CHANNELS 6 Xposition Yposition Zposition Zrotation Xrotation Yrotation
        JOINT Bip01_L_Calf
        {
          OFFSET 3.92616 0 0
          CHANNELS 6 Xposition Yposition Zposition Zrotation Xrotation Yrotation
          JOINT Bip01_L_HorseLink
          {
            OFFSET 6.1232 0 0
            CHANNELS 6 Xposition Yposition Zposition Zrotation Xrotation Yrotation
            JOINT Bip01_L_Foot
            {
              OFFSET 9.94775 0 0
              CHANNELS 6 Xposition Yposition Zposition Zrotation Xrotation Yrotation
              JOINT Bip01_L_Toe3
              {
                OFFSET 0.881246 -0.110986 -0.0157582
                CHANNELS 6 Xposition Yposition Zposition Zrotation Xrotation Yrotation
                JOINT Bip01_L_Toe31
                {
                  OFFSET 2.32136 0 0
                  CHANNELS 6 Xposition Yposition Zposition Zrotation Xrotation Yrotation
                  JOINT Bip01_L_Toe32
                  {
                    OFFSET 1.63293 0 0
                    CHANNELS 6 Xposition Yposition Zposition Zrotation Xrotation Yrotation
                    JOINT Bip01_L_Toe3Nub
                    {
                      OFFSET 1.7213 0 0
                      CHANNELS 6 Xposition Yposition Zposition Zrotation Xrotation Yrotation
                      End Site
                      {
                        OFFSET 0 0 0
                      }
                    }
                  }
                }
              }
              JOINT Bip01_L_Toe2
              {
                OFFSET 0.994649 0.967162 1.09447
                CHANNELS 6 Xposition Yposition Zposition Zrotation Xrotation Yrotation
                JOINT Bip01_L_Toe21
                {
                  OFFSET 2.202 0 0
                  CHANNELS 6 Xposition Yposition Zposition Zrotation Xrotation Yrotation
                  JOINT Bip01_L_Toe22
                  {
                    OFFSET 1.84926 0 0
                    CHANNELS 6 Xposition Yposition Zposition Zrotation Xrotation Yrotation
                    JOINT Bip01_L_Toe2Nub
                    {
                      OFFSET 1.70976 0 0
                      CHANNELS 6 Xposition Yposition Zposition Zrotation Xrotation Yrotation
                      End Site
                      {
                        OFFSET 0 0 0
                      }
                    }
                  }
                }
              }
              JOINT Bip01_L_Toe1
              {
                OFFSET 1.37483 1.34021 0.0715086
                CHANNELS 6 Xposition Yposition Zposition Zrotation Xrotation Yrotation
                JOINT Bip01_L_Toe11
                {
                  OFFSET 2.26124 0 0
                  CHANNELS 6 Xposition Yposition Zposition Zrotation Xrotation Yrotation
                  JOINT Bip01_L_Toe12
                  {
                    OFFSET 2.22214 0 0
                    CHANNELS 6 Xposition Yposition Zposition Zrotation Xrotation Yrotation
                    JOINT Bip01_L_Toe1Nub
                    {
                      OFFSET 1.61867 0 0
                      CHANNELS 6 Xposition Yposition Zposition Zrotation Xrotation Yrotation
                      End Site
                      {
                        OFFSET 0 0 0
                      }
                    }
                  }
                }
              }
              JOINT Bip01_L_Toe0
              {
                OFFSET 1.40707 0.688009 -0.883564
                CHANNELS 6 Xposition Yposition Zposition Zrotation Xrotation Yrotation
                JOINT Bip01_L_Toe01
                {
                  OFFSET 2.26828 0 0
                  CHANNELS 6 Xposition Yposition Zposition Zrotation Xrotation Yrotation
                  JOINT Bip01_L_Toe02
                  {
                    OFFSET 2.0977 0 0
                    CHANNELS 6 Xposition Yposition Zposition Zrotation Xrotation Yrotation
                    JOINT Bip01_L_Toe0Nub
                    {
                      OFFSET 1.53752 0 0
                      CHANNELS 6 Xposition Yposition Zposition Zrotation Xrotation Yrotation
                      End Site
                      {
                        OFFSET 0 0 0
                      }
                    }
                  }
                }
              }
            }
          }
        }
      }
      JOINT Bip01_Spine1
      {
        OFFSET 4.90674 -0.00437896 0
        CHANNELS 6 Xposition Yposition Zposition Zrotation Xrotation Yrotation
        JOINT Bip01_Neck
        {
          OFFSET 5.56447 -1.28357 0
          CHANNELS 6 Xposition Yposition Zposition Zrotation Xrotation Yrotation
          JOINT Bip01_Neck1
          {
            OFFSET 2.79308 -0.00219964 0
            CHANNELS 6 Xposition Yposition Zposition Zrotation Xrotation Yrotation
            JOINT Bip01_Head
            {
              OFFSET 2.79272 0 0
              CHANNELS 6 Xposition Yposition Zposition Zrotation Xrotation Yrotation
              JOINT BN_Mouth_01
              {
                OFFSET 4.19089 0.0665938 0
                CHANNELS 6 Xposition Yposition Zposition Zrotation Xrotation Yrotation
                End Site
                {
                  OFFSET 0 0 0
                }
              }
              JOINT Bip01_HeadNub
              {
                OFFSET 6.95118 0 0
                CHANNELS 6 Xposition Yposition Zposition Zrotation Xrotation Yrotation
                End Site
                {
                  OFFSET 0 0 0
                }
              }
            }
          }
        }
      }
    }
  }
}
MOTION
Frames:	3
Frame Time:	0.0333333
0.849884 91.44 0 -175.247 -90 -90 0 0 0 -89.9989 6.1813 -89.9989 -5.52396 -0.332276 0 -35.3922 0.00990295 179.968 6.48885 -7.6294e-006 -0.00301498 13.1432 -5.43908e-010 2.42088e-009 7.08758 -3.8147e-006 -0.00296926 21.0985 0.020392 0.013989 4.02122 0.398949 -2.32831e-010 -4.85098 0.59818 3.40366 4.84412 -3.22853 -3.65581 -81.6726 -8.74456 35.7459 8.51611 3.55272e-015 3.8147e-006 36.3246 -0.00153571 -20.2371 10.1924 7.62941e-006 -3.8147e-006 -30.909 0.675282 -22.3418 14.5949 -1.43856 0.585077 -48.2962 -1.49342 21.2378 14.4623 3.55272e-015 0 -2.99638 -0.00273985 19.865 4.84412 -3.22853 3.65557 98.3175 -8.72062 -144.236 8.51612 3.55272e-015 -3.8147e-006 -36.3246 0.0015417 -20.2371 10.1924 7.10544e-015 0 30.909 -0.675283 -22.3419 14.4623 -1.90735e-006 0 2.99637 0.00273691 19.865 14.5949 1.43853 0.585064 48.2962 1.49342 21.2378 -3.76141 -0.772919 -3.67577 -91.1822 -2.577 173.566 3.92618 -1.90735e-006 0 -75.4756 2.17136e-006 9.92855e-006 6.12319 7.62942e-006 0 99.2198 -2.61736e-006 -1.01935e-005 9.94774 3.81472e-006 0 -51.9021 4.7101 6.04958 0.881249 -0.110958 0.0158165 153.243 -4.55437 179.841 2.32136 3.81473e-006 0 81.3801 2.59043e-006 -2.12609e-006 1.63293 0 0 -87.5397 -4.26987e-008 7.08542e-006 1.72127 3.81479e-006 4.76837e-007 2.08718e-009 -1.89177e-007 -1.20942e-007 0.99472 0.967281 -1.09432 100.731 3.63894 27.2618 2.202 -1.5259e-005 2.38418e-007 55.5995 -7.08723e-007 9.75961e-007 1.84923 3.81477e-006 1.19209e-007 -35.3034 -1.39232e-005 -9.98594e-006 1.70975 1.42112e-014 -2.38419e-007 -6.54884e-008 -2.03967e-007 -2.34425e-007 1.37481 1.34027 -0.0712974 112.106 -1.01429 -2.49567 2.26122 -7.6295e-006 -4.44089e-016 31.1828 9.88592e-006 -5.30308e-006 2.22213 3.81476e-006 2.38419e-007 -38.5073 -2.45589e-007 1.14261e-007 1.61866 -7.62954e-006 -2.38419e-007 -3.60266e-009 1.13992e-008 9.77996e-008 1.40697 0.687986 0.883725 102.531 -7.69389 -31.052 2.26828 -1.42111e-014 -9.53674e-007 26.1292 -9.07692e-006 9.33788e-006 2.0977 1.14443e-005 9.53674e-007 -61.0221 -7.03175e-006 7.19281e-006 1.53751 1.52591e-005 0 -5.74015e-007 8.84237e-006 -3.58284e-007 -4.1717 -0.701188 3.21918 -97.4546 8.00128 -174.233 3.92617 3.8147e-006 -1.77636e-015 -76.5764 -7.23379e-006 1.19622e-005 6.12321 7.62942e-006 0 132.918 0.00139838 -0.00320609 9.94776 -0.000625613 -0.000671387 -17.9055 -7.51281 3.63756 0.881233 -0.111024 -0.0158648 109.127 3.18477 -176.716 2.32135 4.76842e-007 -1.77636e-015 44.4123 -0.0039688 -0.0097154 1.63293 7.10552e-015 2.38419e-007 -43.5146 -0.00129488 0.00325075 1.72131 -4.76846e-007 2.38419e-007 -179.961 0.00687569 0.000886839 0.994834 0.96726 1.09421 72.526 10.6379 -25.4762 2.20201 0.000762947 7.10542e-015 63.0954 -0.00867347 -0.0274987 1.84924 -0.00102808 -0.000606536 -35.3291 -0.000911776 0.0143835 1.70975 -5.72215e-006 3.8147e-006 179.961 0.00758548 -0.000448345 1.37489 1.34017 0.0711503 77.626 -0.582947 2.64585 2.26122 0.00064469 0.000544071 49.3412 -0.0140816 -0.0474108 2.22212 -0.00132944 -0.00130057 -38.5369 0.000669751 0.029872 1.61866 -3.81477e-006 1.77636e-015 179.963 0.0129666 -0.000643849 1.40697 0.687847 -0.883844 83.9474 -3.75322 31.6978 2.26828 7.1055e-015 3.81469e-006 49.9345 4.10557e-006 -5.01364e-006 2.09771 0 3.81469e-006 -61.0221 -1.73749e-005 -8.75782e-006 1.53752 3.81478e-006 -3.81469e-006 179.961 -0.00367951 -0.00405051 4.9071 -0.00428772 -0.000376225 9.04795 4.95588 -2.0849 5.56426 -1.28358 -9.53674e-007 -1.92277 -6.57524 8.33693 2.79365 -0.00200653 4.44089e-016 24.6191 -3.8675 -9.68557 2.79272 7.6294e-006 0 28.0902 -1.35029 0.453163 4.19087 0.0665894 0 -126.987 -0.0398712 -179.98 6.95116 0 4.44089e-016 -1.08278e-006 1.00174e-005 -4.86977e-008 
0.656732 91.7592 -3.86926e-009 101.136 -90 -174.57 0 0 0 -89.9989 6.1813 -89.9989 -5.52396 -0.332276 -3.77302e-017 -34.6813 0.00950623 179.968 6.48885 -7.6294e-006 -0.00301498 13.0524 -4.97549e-010 2.41353e-009 7.08758 -3.8147e-006 -0.00296926 22.6211 0.0285084 0.0320455 4.02122 0.398949 -2.32831e-010 -3.88121 0.655765 3.39305 4.84412 -3.22853 -3.65581 -80.5442 -7.39355 43.7336 8.51611 -9.23707e-014 3.8147e-006 36.3246 -0.000148414 -19.0868 10.1924 7.62941e-006 -3.8147e-006 -30.8086 0.62468 -31.4095 14.5949 -1.43856 0.585077 -47.8723 -1.60973 10.0213 14.4623 -3.55272e-015 -7.10543e-015 -2.99557 -0.00182715 8.6207 4.84412 -3.22853 3.65557 99.3896 -7.3262 -136.264 8.51612 -1.06582e-014 -3.8147e-006 -36.3246 0.000156167 -19.0868 10.1924 -2.27374e-013 0 30.8087 -0.6247 -31.4095 14.4623 -1.90735e-006 -1.42108e-014 2.99556 0.0018249 8.62069 14.5949 1.43853 0.585064 48.4183 1.72412 8.85469 -3.77394 -0.708434 -3.67577 -90.1429 -2.71662 173.588 3.92618 -1.90735e-006 0 -75.3091 2.20302e-006 9.87168e-006 6.12319 7.62942e-006 3.55271e-015 100.543 7.00869e-006 -1.19657e-005 9.94774 3.81472e-006 0 -52.5833 4.20614 6.37798 0.881249 -0.110958 0.0158165 154.648 -4.5351 179.981 2.32136 3.81473e-006 0 81.3801 2.58612e-006 -2.11317e-006 1.63293 0 -5.32907e-015 -87.5397 -1.00492e-005 7.57416e-006 1.72127 3.81479e-006 4.76837e-007 2.0872e-009 -1.89177e-007 -1.20942e-007 0.99472 0.967281 -1.09432 99.6107 3.06342 27.327 2.202 -1.5259e-005 2.38419e-007 55.5995 -7.75099e-007 1.10324e-006 1.84923 3.81477e-006 1.19209e-007 -35.3041 0.000296156 -0.000447748 1.70975 4.26335e-014 -2.38419e-007 -6.54884e-008 -2.03967e-007 -2.34425e-007 1.37481 1.34027 -0.0712974 110.785 -0.956585 -2.51834 2.26122 -7.6295e-006 -1.06581e-014 31.1828 1.52022e-005 3.18094e-006 2.22213 3.81476e-006 2.38419e-007 -38.5073 -3.86261e-007 1.22745e-007 1.61866 -7.62954e-006 -2.38419e-007 -3.60266e-009 1.13992e-008 9.77996e-008 1.40697 0.687986 0.883725 101.486 -7.0658 -31.1868 2.26828 0 -9.53674e-007 26.1292 -8.73687e-006 8.7733e-006 2.0977 1.14443e-005 9.53674e-007 -61.0225 -1.0082e-005 9.01775e-006 1.53751 1.52591e-005 -4.44089e-014 -5.74015e-007 8.84237e-006 -3.58284e-007 -4.18312 -0.630066 3.21918 -99.6113 8.05326 -174.234 3.92617 3.8147e-006 -1.77636e-015 -79.559 -7.83291e-006 1.15309e-005 6.12321 7.62942e-006 1.77636e-015 133.426 -0.000958569 -0.00101433 9.94776 -0.000625613 -0.000671387 -16.9183 -7.24801 3.62872 0.881233 -0.111024 -0.0158648 109.694 3.22981 -176.742 2.32135 4.76842e-007 6.21725e-015 44.4269 -0.0028238 -0.00854374 1.63293 -7.10552e-015 2.38419e-007 -43.7785 -0.0102869 0.0126129 1.72131 -4.76846e-007 2.38419e-007 -179.961 0.00687569 0.000886839 0.994834 0.96726 1.09421 72.1346 10.8209 -25.4033 2.20201 0.000762947 1.12976e-012 62.1539 0.0366309 -0.00394429 1.84924 -0.00102808 -0.000606536 -35.3263 -0.000117465 0.0132633 1.70975 -5.72215e-006 3.8147e-006 179.961 0.00758548 -0.000448345 1.37489 1.34017 0.0711503 77.1091 -0.604327 2.64105 2.26122 0.00064469 0.000544071 48.6899 -0.00274731 -0.0380812 2.22212 -0.00132944 -0.00130057 -38.5332 0.00397314 0.0257265 1.61866 -3.81476e-006 1.77636e-015 179.963 0.0129666 -0.000643849 1.40697 0.687847 -0.883844 83.5347 -4.00711 31.6699 2.26828 0 3.81469e-006 49.2445 -0.0192564 -0.0166035 2.09771 3.55277e-015 3.81469e-006 -61.0186 -1.65704e-005 -8.34035e-006 1.53752 3.81478e-006 -3.81469e-006 179.961 -0.00367951 -0.00405051 4.9071 -0.00428772 -0.000376225 9.58671 4.93594 -2.13242 5.56426 -1.28358 -9.53786e-007 -1.78334 -6.55493 8.35288 2.79365 -0.00200653 -2.27418e-012 24.4352 -3.82716 -9.69705 2.79272 7.6294e-006 -1.55431e-015 28.4197 -1.34788 0.635772 4.19087 0.0665894 7.87237e-012 -126.762 -0.0136108 -179.993 6.95116 -1.42109e-014 -1.33227e-015 -1.08278e-006 1.00174e-005 -4.86977e-008 
0.384289 92.2477 -1.00096e-008 136.815 -90 -139.937 0 0 0 -89.9989 6.1813 -89.9989 -5.52396 -0.332276 -8.23994e-017 -33.9445 0.00909424 179.968 6.48885 -7.6294e-006 -0.00301498 12.7736 -4.33303e-010 2.39786e-009 7.08758 -3.8147e-006 -0.00296926 24.2373 0.0329156 0.0390356 4.02122 0.398949 -2.32831e-010 -2.66329 0.727816 3.37835 4.84412 -3.22853 -3.65581 -78.8954 -4.05955 62.459 8.51611 -3.48166e-013 3.8147e-006 36.3249 -0.00246661 -16.0472 10.1924 7.62941e-006 -3.8147e-006 -30.7331 0.570576 -38.3868 14.5949 -1.43856 0.585077 -47.8176 -1.70674 -5.36415 14.4623 3.55272e-015 0 -2.99638 -0.000526866 -7.00619 4.84412 -3.22853 3.65557 100.835 -3.91549 -117.549 8.51612 3.55272e-015 -3.8147e-006 -36.3249 0.00248531 -16.0472 10.1924 0 2.34479e-013 30.7365 -0.571779 -38.3868 14.4623 -1.90735e-006 -1.77636e-014 2.99639 0.000524896 -7.00619 14.5949 1.43853 0.585064 48.425 1.74019 -6.6203 -3.78828 -0.628899 -3.67577 -90.7155 -2.7564 173.724 3.92618 -1.90735e-006 1.77636e-015 -76.3449 2.02866e-006 9.89854e-006 6.12319 7.62942e-006 1.77636e-015 101.88 6.74709e-006 -1.21358e-005 9.94774 3.81472e-006 -1.77636e-015 -53.2482 3.70828 6.69402 0.881249 -0.110958 0.0158165 158.442 -4.54034 -179.75 2.32136 3.81473e-006 -4.44089e-015 81.3801 1.23718e-005 -5.68917e-007 1.63293 1.42111e-014 -9.76996e-015 -87.5397 -9.97759e-006 7.6303e-006 1.72127 3.81479e-006 4.76837e-007 2.08719e-009 -1.89177e-007 -1.20942e-007 0.99472 0.967281 -1.09432 96.5182 1.45564 27.4499 2.202 -1.5259e-005 2.38419e-007 55.5995 -9.63018e-007 1.33473e-006 1.84923 3.81477e-006 1.19209e-007 -35.3047 0.00059638 -0.000871354 1.70975 1.42112e-014 -2.38419e-007 -6.54884e-008 -2.03967e-007 -2.34425e-007 1.37481 1.34027 -0.0712974 107.161 -0.794112 -2.57416 2.26122 -7.6295e-006 -4.04121e-014 31.1828 1.54001e-005 3.02867e-006 2.22213 3.81476e-006 2.38419e-007 -38.5073 -5.98135e-007 1.5617e-007 1.61866 -7.62954e-006 -2.38419e-007 -3.60266e-009 1.13992e-008 9.77996e-008 1.40697 0.687986 0.883725 98.6206 -5.33356 -31.4958 2.26828 0 -9.53674e-007 26.1292 -7.50795e-006 8.85831e-006 2.09769 1.14443e-005 9.53674e-007 -61.0228 -6.09711e-006 7.06731e-006 1.53751 1.52591e-005 -1.32339e-013 -5.74015e-007 8.84237e-006 -3.58284e-007 -4.1956 -0.540868 3.21918 -102.527 8.11584 -174.277 3.92617 3.8147e-006 -8.88178e-016 -82.9903 -8.50142e-006 1.09938e-005 6.12321 7.62942e-006 0 133.173 -0.000954003 -0.00101855 9.94776 -0.000625613 -0.000671387 -15.8532 -6.94521 3.60318 0.881233 -0.111024 -0.0158648 111.258 3.32287 -176.828 2.32135 4.76842e-007 4.44089e-015 44.4413 -0.00169723 -0.0073922 1.63293 0 2.38419e-007 -44.5558 -0.0104259 0.0124404 1.72131 -4.76846e-007 2.38419e-007 -179.961 0.00687569 0.000886839 0.994834 0.96726 1.09421 70.9264 11.381 -25.1707 2.20201 0.000762947 4.09272e-012 59.6791 0.0388206 -0.00115863 1.84924 -0.00102808 -0.000606536 -35.3234 0.000663217 0.012161 1.70975 -5.72215e-006 3.81469e-006 179.961 0.00758548 -0.000448345 1.37489 1.34017 0.0711503 75.573 -0.676152 2.62359 2.26122 0.00064469 0.000544071 46.9624 0.000538306 -0.0361515 2.22212 -0.00132944 -0.00130057 -38.5295 0.00721399 0.0216586 1.61866 -3.81476e-006 0 179.963 0.0129666 -0.000643849 1.40697 0.687847 -0.883844 82.3601 -4.72831 31.5804 2.26828 2.13165e-014 3.81469e-006 47.26 -0.0188319 -0.0174085 2.09771 -3.19749e-014 3.81469e-006 -61.0152 -6.25526e-006 -1.15765e-005 1.53752 3.81478e-006 -3.81469e-006 179.961 -0.00367951 -0.0040505 4.9071 -0.00428772 -0.000376225 10.2637 4.91088 -2.18832 5.56426 -1.28358 -9.53895e-007 -1.48877 -6.51187 8.38639 2.79365 -0.00200653 -5.22116e-012 23.7373 -3.69046 -9.73966 2.79272 7.6294e-006 -5.55111e-015 28.3087 -1.37575 0.866363 4.19087 0.0665894 1.45111e-011 -130.433 -0.0320587 -179.986 6.95116 -1.42109e-014 -8.88178e-016 -1.08278e-006 1.00174e-005 -4.86977e-008 
